# xmcd
#
# Track frame offsets:
#	187
#	19912
#	40312
#	59512
#	75712
#	94012
#	114675
#	130987
#	148912
#	171375
#	190387
#	210412
#	226687
#
# Disc length: 3222 seconds
#
# Revision: 1
# Processed by: cddbd v1.5.1PL0 Copyright (c) Steve Scherf et al.
# Submitted via: CDex 1.50Beta5
#
DISCID=b90c940d
DTITLE=三重野瞳 - 真空パック〜シングル・コレクション〜
DYEAR=1999
DGENRE=Pop
TTITLE0=瞳Fall in Love
TTITLE1=がんばって
TTITLE2=POWER OF DREAM
TTITLE3=BOYS BE AMBITIOUS
TTITLE4=ひとつのハートで
TTITLE5=風のシンフォニー
TTITLE6=Future
TTITLE7=Dollたちの独立記念日
TTITLE8=はじまりの冒険者たち
TTITLE9=Wonderful Bravo!
TTITLE10=未知への扉
TTITLE11=Run
TTITLE12=瞳にDiamond
EXTD=
EXTT0=
EXTT1=
EXTT2=
EXTT3=
EXTT4=
EXTT5=
EXTT6=
EXTT7=
EXTT8=
EXTT9=
EXTT10=
EXTT11=
EXTT12=
PLAYORDER=
